PathFileType	4	(X/Y/Z)	OpenSim_Sub02_EMGStiffKnee_Gyro.trc
DataRate	CameraRate	NumFrames	NumMarkers	Units	OrigDataRate	OrigDataStartFrame	OrigNumFrames
100	100	16	8	m	100	3946	7890
Frame#	Time	torso_imu_offset_imu	pelvis_imu_offset_imu	tibia_r_imu_offset_imu	femur_r_imu_offset_imu	tibia_l_imu_offset_imu	femur_l_imu_offset_imu	toes_r_imu_offset_imu	toes_l_imu_offset_imu
				X1	Y1	Z1	X2	Y2	Z2	X3	Y3	Z3	X4	Y4	Z4	X5	Y5	Z5	X6	Y6	Z6	X7	Y7	Z7	X8		Y8	Z8	

3946	39.45000000	0.80255843	0.06789060	0.06090955	0.75004612	-0.06377086	0.03768988	-0.73405165	-1.08119777	-0.70909085	-0.83738473	-0.18251518	-1.66298438	-0.63208858	0.98716630	1.84398948	-0.67556309	0.07042359	-0.99937780	-0.56946679	-0.70654551	0.18281050	0.89370832	-2.75539732	0.43595975
3947	39.46000000	0.81215791	0.14658942	0.16647206	0.77196239	0.00299878	-0.07701801	-0.39775466	-0.94204963	-0.95768323	-0.70709682	0.09337889	-1.85873980	-0.85572699	0.62926805	1.86890487	-0.65160215	-0.13095607	-1.16597760	-0.29980777	-0.70372350	0.01303642	1.34474518	-1.52016248	-1.18640761
3948	39.47000000	0.82388358	0.21285419	0.25825917	0.77921159	0.00022368	-0.20355702	-1.01202540	-0.36449634	-1.12467452	-0.59934680	0.20909931	-1.70920183	-0.71302066	0.48240208	1.65558704	-0.75244490	-0.23212195	-1.28588390	-0.08872325	-0.60971381	-0.03318064	0.27893633	-0.83204917	-2.48441935
3949	39.48000000	0.86345433	0.24264879	0.33150669	0.74389022	-0.07268210	-0.34286266	-1.25466267	-0.39237432	-1.00217369	-0.54082215	0.12450258	-1.36662192	-0.33459513	0.55110407	0.88976358	-0.99556785	-0.20224449	-1.29691726	-0.07912856	-0.65645649	0.04502045	0.00443980	0.25188423	-3.02580134
3950	39.49000000	0.88819534	0.25070026	0.36738468	0.69173971	-0.16157653	-0.44028491	-0.81911960	-0.23613800	-1.07880388	-0.43435014	-0.16813063	-1.01148804	-0.46319363	0.50824214	-0.14988245	-1.12503426	-0.12758569	-1.20394558	-0.34815799	-0.80790111	0.16093564	-0.18771971	0.62096790	-3.06655766
3951	39.50000000	0.88455279	0.24309531	0.35201538	0.64025051	-0.23400193	-0.44259458	-0.56954931	-0.16415063	-1.33292185	-0.12921471	-0.44738337	-0.69009164	-1.07993038	0.28047377	-0.99756231	-0.94870359	-0.03772961	-1.04263604	-0.41792605	-0.89405013	0.19957583	0.28526714	1.38957976	-2.76656544
3952	39.51000000	0.85631293	0.23417079	0.30472065	0.56985078	-0.32596870	-0.37211856	-0.31875513	-0.25500102	-1.23738339	0.23777696	-0.56755633	-0.54421239	-1.44035307	-0.23746524	-1.36089835	-0.60202017	0.01110579	-0.86858877	-0.26880394	-1.00289641	0.25191182	0.86527888	2.00959394	-2.24035148
3953	39.52000000	0.81548257	0.21860773	0.25079381	0.51204232	-0.42211546	-0.28764469	-0.14087139	-0.31476496	-0.85365130	0.53614663	-0.46831848	-0.52036820	-1.38002394	-1.05070987	-1.40576513	-0.26321895	-0.00684932	-0.71877792	-0.34318130	-1.11884627	0.33951657	1.14933361	2.65529411	-1.63242955
3954	39.53000000	0.77583724	0.21769108	0.21385485	0.49207502	-0.48005414	-0.23394574	0.01646621	-0.27542483	-0.62206937	0.75348203	-0.26021625	-0.54526328	-1.06148257	-1.63691056	-1.50751106	0.01611128	-0.05455287	-0.62223590	-0.46915506	-1.15420409	0.41728937	1.14042257	3.26680780	-1.12688966
3955	39.54000000	0.73132975	0.20512126	0.19169478	0.49796444	-0.49189895	-0.20758686	0.11516601	-0.21326105	-0.70366694	0.86155805	-0.21684498	-0.58740876	-0.53052189	-1.65734547	-1.80659809	0.18440508	-0.08059126	-0.60518540	-0.52033841	-1.24698289	0.45505916	0.94854230	3.82896905	-0.82792048
3956	39.55000000	0.67805048	0.15765555	0.18051837	0.51782278	-0.46099994	-0.19102725	0.03595636	-0.14842240	-0.85958050	0.78620914	-0.31083977	-0.69106516	0.35372916	-1.44045849	-2.34252512	0.26276103	-0.06920676	-0.60525350	-0.47649269	-1.23172135	0.47328245	0.64658894	4.23602189	-0.68789215
3957	39.56000000	0.63011526	0.13714586	0.17395195	0.52627859	-0.42094907	-0.15322690	-0.11903098	-0.14270608	-0.94475240	0.63379819	-0.36416083	-0.83413386	1.42055856	-1.25639713	-3.05272158	0.33523708	-0.09151497	-0.56381075	-0.38192759	-1.20432329	0.49087137	0.31057234	4.62801148	-0.67825071
3958	39.57000000	0.58614210	0.12500458	0.18728647	0.53590785	-0.38193482	-0.10484389	-0.21374112	-0.13836035	-0.94820036	0.53605621	-0.34843211	-0.93724870	2.26568105	-1.14480198	-3.67171026	0.45534996	-0.16258563	-0.48231871	-0.42059530	-1.21035401	0.45686111	0.22634929	4.93284964	-0.72650863
3959	39.58000000	0.55963331	0.10765847	0.21909823	0.54806745	-0.34164067	-0.06349733	-0.18739858	-0.13060409	-0.89714824	0.42505501	-0.33154219	-1.00272311	2.73590937	-1.14909391	-4.01452900	0.59234099	-0.24993770	-0.38524378	-0.42396319	-1.14633286	0.37279487	0.14328913	5.13087743	-0.77137667
3960	39.59000000	0.56254790	0.10143106	0.24140815	0.54033984	-0.29769149	-0.03514607	-0.15491768	-0.13240645	-0.81605318	0.30752698	-0.33748025	-1.01547334	2.86849312	-1.33737773	-4.17595573	0.78743682	-0.34279110	-0.29699160	-0.29186035	-1.05802060	0.28027110	-0.07004421	5.23683620	-0.81140147
3961	39.60000000	0.56393328	0.08714901	0.25650399	0.52299403	-0.25063720	-0.02063378	-0.14874814	-0.14214724	-0.75188336	0.27263374	-0.34866711	-0.96216825	2.61563247	-1.65650970	-4.29699542	1.13104379	-0.43853794	-0.24178743	-0.19968749	-0.97552398	0.18976175	-0.22328238	5.23164893	-0.84217773
